<svg width="32" height="32" viewBox="0 0 32 32" fill="none" xmlns="http://www.w3.org/2000/svg">
<g filter="url(#filter0_i_444_6982)">
<path fill-rule="evenodd" clip-rule="evenodd" d="M18.11 2.02C10.3 1.56 2.61 8.43 1.9 22.81H6.35C6.35 22.81 6.35 28.95 6.35 29.32C6.35 29.69 6.35 30 6.97 30C7.59 30 17.79 30 17.79 30V26.99C20.6 27.36 29.96 24.12 30.1 15.78C30.23 7.44 25.92 2.48 18.11 2.02ZM17.59 5.16C22.74 5.16 26.92 9.34 26.92 14.49C26.92 19.64 22.94 23.85 17.79 23.85V26.99C9.6 22.77 8.29 20.51 8.26 14.49C8.26 9.34 12.44 5.16 17.59 5.16Z" fill="url(#paint0_linear_444_6982)"/>
<path d="M10.88 14.56C10.88 15.88 11.94 16.94 13.26 16.94C14.57 16.94 15.63 15.88 15.63 14.56C15.63 13.25 14.57 12.19 13.26 12.19C11.94 12.19 10.88 13.25 10.88 14.56Z" fill="url(#paint1_linear_444_6982)"/>
</g>
<defs>
<filter id="filter0_i_444_6982" x="1.9" y="2" width="28.2" height="28" filterUnits="userSpaceOnUse" color-interpolation-filters="sRGB">
<feFlood flood-opacity="0" result="BackgroundImageFix"/>
<feBlend mode="normal" in="SourceGraphic" in2="BackgroundImageFix" result="shape"/>
<feColorMatrix in="SourceAlpha" type="matrix" values="0 0 0 0 0 0 0 0 0 0 0 0 0 0 0 0 0 0 127 0" result="hardAlpha"/>
<feOffset dx="-0.4" dy="0.4"/>
<feComposite in2="hardAlpha" operator="arithmetic" k2="-1" k3="1"/>
<feColorMatrix type="matrix" values="0 0 0 0 1 0 0 0 0 1 0 0 0 0 1 0 0 0 0.5 0"/>
<feBlend mode="normal" in2="shape" result="effect1_innerShadow_444_6982"/>
</filter>
<linearGradient id="paint0_linear_444_6982" x1="30.1" y1="2" x2="1.9" y2="30" gradientUnits="userSpaceOnUse">
<stop stop-color="white"/>
<stop offset="1" stop-color="#7B7B7B"/>
</linearGradient>
<linearGradient id="paint1_linear_444_6982" x1="30.1" y1="2" x2="1.9" y2="30" gradientUnits="userSpaceOnUse">
<stop stop-color="white"/>
<stop offset="1" stop-color="#7B7B7B"/>
</linearGradient>
</defs>
</svg>
